<?xml version="1.0" encoding="UTF-8" standalone="no"?>
<!DOCTYPE svg PUBLIC "-//W3C//DTD SVG 20010904//EN"
              "http://www.w3.org/TR/2001/REC-SVG-20010904/DTD/svg10.dtd">

<svg xmlns="http://www.w3.org/2000/svg"
     width="174.668mm" height="78.6555mm"
     viewBox="0 0 2063 929">
  <path id="Selection"
        fill="red" stroke="red" stroke-width="1"
        d="M 473.23,61.83
           C 468.50,65.13 471.79,68.69 475.04,71.83
             480.36,76.96 486.33,82.30 494.00,82.91
             497.25,83.17 504.39,83.35 502.60,77.98
             501.93,75.97 499.46,73.51 497.98,72.00
             491.08,64.95 483.45,60.26 473.23,61.83 Z
           M 499.76,61.99
           C 497.35,65.97 500.47,68.95 503.17,72.00
             509.20,78.80 513.63,83.05 523.00,83.83
             534.61,84.78 528.15,76.46 524.28,72.00
             518.54,65.39 509.11,57.88 499.76,61.99 Z
           M 527.60,63.02
           C 524.94,67.02 527.82,69.66 530.35,73.00
             535.21,79.41 538.83,83.95 547.00,85.96
             549.09,86.47 552.65,87.28 554.55,85.96
             558.57,83.19 553.49,77.47 551.58,75.00
             546.36,68.26 537.08,59.09 527.60,63.02 Z
           M 445.32,65.02
           C 441.41,69.46 445.45,72.07 449.00,75.08
             456.55,81.47 459.83,84.40 470.00,83.98
             481.55,83.50 474.68,76.36 470.00,72.41
             462.85,66.40 454.97,61.34 445.32,65.02 Z
           M 555.33,66.04
           C 552.17,69.81 554.97,72.43 557.33,76.00
             561.75,82.68 565.00,87.63 573.00,90.49
             575.13,90.95 578.60,91.95 580.68,90.49
             585.09,88.17 579.78,81.66 578.00,79.00
             573.30,71.98 564.81,62.86 555.33,66.04 Z
           M 422.00,68.44
           C 411.51,70.82 417.68,76.18 423.00,80.12
             429.60,85.01 437.40,89.03 445.94,86.69
             452.63,84.85 448.26,79.50 444.98,76.90
             437.79,71.18 431.43,67.30 422.00,68.44 Z
           M 582.60,71.04
           C 580.07,74.72 582.02,77.45 584.00,81.00
             587.92,88.02 590.07,92.83 598.00,95.93
             600.28,96.82 604.40,98.37 606.67,96.94
             610.52,94.52 606.23,88.67 604.72,86.00
             600.74,79.00 592.06,67.55 582.60,71.04 Z
           M 397.00,74.43
           C 388.98,75.77 385.73,78.77 394.02,84.64
             399.75,88.70 404.84,91.81 412.00,91.99
             415.31,92.07 426.84,91.99 422.99,85.51
             421.86,83.61 417.93,81.37 416.00,80.20
             409.21,76.09 405.16,73.50 397.00,74.43 Z
           M 609.36,78.04
           C 606.75,81.30 608.29,83.41 609.86,87.00
             612.82,93.75 615.39,99.30 622.00,103.12
             624.45,104.53 629.75,107.10 632.39,104.97
             635.29,102.63 631.49,96.50 630.25,94.00
             628.84,91.18 627.24,87.51 625.37,85.04
             621.96,80.55 615.01,76.18 609.36,78.04 Z
           M 370.00,82.47
           C 360.12,84.92 360.96,88.82 369.00,93.30
             376.82,97.66 382.73,100.58 392.00,98.52
             399.19,96.92 398.91,92.24 392.98,88.80
             385.34,84.35 378.99,81.22 370.00,82.47 Z
           M 637.15,86.13
           C 632.29,88.64 634.79,92.93 636.40,97.00
             639.41,104.61 641.24,110.00 649.00,114.08
             650.72,114.98 652.96,115.91 654.94,115.58
             660.88,114.59 656.89,107.22 655.60,104.00
             652.27,95.67 647.28,86.73 637.15,86.13 Z
           M 344.00,92.52
           C 339.20,93.87 333.70,97.19 340.15,101.64
             343.84,104.18 353.48,107.76 358.00,107.96
             361.52,108.11 377.11,106.39 371.38,99.64
             370.03,98.05 366.00,96.60 364.00,95.70
             356.06,92.11 352.85,91.11 344.00,92.52 Z
           M 661.33,97.07
           C 658.28,100.49 660.01,103.00 661.33,107.00
             663.58,113.77 664.90,119.66 671.04,124.10
             673.31,125.74 677.86,128.64 680.50,126.93
             684.11,124.85 681.29,118.86 680.50,116.00
             677.65,107.95 676.69,103.52 669.00,98.71
             665.84,96.74 664.88,96.12 661.33,97.07 Z
           M 321.00,103.52
           C 321.00,103.52 317.02,104.71 317.02,104.71
             313.17,106.23 309.62,109.52 314.24,112.92
             316.61,114.66 328.87,118.55 332.00,118.81
             335.82,119.13 350.41,116.82 346.92,110.39
             345.78,108.28 342.14,107.10 340.00,106.34
             332.61,103.74 328.96,102.26 321.00,103.52 Z
           M 476.00,107.00
           C 476.00,107.00 481.28,125.00 481.28,125.00
             481.28,125.00 482.65,133.91 482.65,133.91
             482.65,133.91 462.00,152.00 462.00,152.00
             462.00,152.00 480.00,151.00 480.00,151.00
             480.00,151.00 488.72,152.02 488.72,152.02
             488.72,152.02 492.72,160.00 492.72,160.00
             492.72,160.00 499.00,178.00 499.00,178.00
             501.70,174.02 507.21,156.12 508.00,151.00
             508.00,151.00 536.00,151.00 536.00,151.00
             536.00,151.00 522.00,139.86 522.00,139.86
             522.00,139.86 515.35,133.82 515.35,133.82
             515.35,133.82 517.00,125.00 517.00,125.00
             517.00,125.00 522.00,107.00 522.00,107.00
             522.00,107.00 507.00,117.58 507.00,117.58
             507.00,117.58 499.00,121.88 499.00,121.88
             499.00,121.88 491.00,117.58 491.00,117.58
             491.00,117.58 476.00,107.00 476.00,107.00 Z
           M 687.15,108.96
           C 682.61,111.64 684.79,115.66 685.87,120.00
             687.91,128.15 689.35,134.12 697.00,138.97
             698.62,140.00 700.79,141.05 702.77,140.65
             707.39,139.71 704.36,131.93 703.63,129.00
             701.56,120.73 697.49,109.12 687.15,108.96 Z
           M 297.00,116.53
           C 295.29,117.03 293.65,117.51 292.04,118.33
             288.40,120.18 285.53,123.75 290.23,126.58
             292.90,128.20 303.73,130.82 307.00,130.96
             311.72,131.17 316.88,130.37 320.85,127.64
             322.78,126.32 324.63,124.03 322.99,121.70
             321.75,119.94 318.00,119.16 316.00,118.58
             308.17,116.27 305.44,115.15 297.00,116.53 Z
           M 710.31,123.13
           C 707.11,126.39 708.40,128.85 709.20,133.00
             710.60,140.37 710.52,145.15 716.10,150.96
             718.20,153.14 722.39,156.91 725.67,154.93
             728.72,153.09 726.93,147.80 726.42,145.00
             724.87,136.36 725.01,132.53 717.98,126.11
             715.16,123.52 714.07,122.46 710.31,123.13 Z
           M 384.00,126.00
           C 384.00,126.00 374.20,142.00 374.20,142.00
             374.20,142.00 368.79,148.23 368.79,148.23
             368.79,148.23 360.00,146.87 360.00,146.87
             360.00,146.87 343.00,143.00 343.00,143.00
             345.59,148.74 350.23,153.24 354.27,158.00
             356.52,160.66 359.51,163.20 358.55,167.00
             358.55,167.00 346.00,189.00 346.00,189.00
             346.00,189.00 363.00,182.72 363.00,182.72
             363.00,182.72 371.00,180.21 371.00,180.21
             371.00,180.21 377.57,185.01 377.57,185.01
             377.57,185.01 390.00,200.00 390.00,200.00
             391.90,195.21 389.50,177.17 389.00,171.00
             389.00,171.00 415.00,161.00 415.00,161.00
             415.00,161.00 396.00,155.37 396.00,155.37
             396.00,155.37 388.60,152.44 388.60,152.44
             388.60,152.44 386.96,144.00 386.96,144.00
             386.96,144.00 386.00,126.00 386.00,126.00
             386.00,126.00 384.00,126.00 384.00,126.00 Z
           M 613.00,126.00
           C 613.00,126.00 611.00,154.00 611.00,154.00
             611.00,154.00 583.00,160.00 583.00,160.00
             587.36,163.45 603.43,169.96 609.00,171.00
             609.00,171.00 607.00,200.00 607.00,200.00
             607.00,200.00 619.25,187.00 619.25,187.00
             619.25,187.00 626.09,180.23 626.09,180.23
             626.09,180.23 634.00,181.99 634.00,181.99
             634.00,181.99 652.00,189.00 652.00,189.00
             652.00,189.00 643.19,173.00 643.19,173.00
             643.19,173.00 639.44,165.00 639.44,165.00
             639.44,165.00 643.73,158.00 643.73,158.00
             643.73,158.00 656.00,143.00 656.00,143.00
             656.00,143.00 633.00,147.94 633.00,147.94
             633.00,147.94 628.18,147.23 628.18,147.23
             628.18,147.23 613.00,126.00 613.00,126.00 Z
           M 277.00,130.47
           C 274.69,131.02 273.20,131.34 271.00,132.40
             271.00,132.40 268.06,134.11 268.06,134.11
             256.72,142.28 278.20,144.88 283.00,144.99
             288.38,145.11 292.29,144.67 296.94,141.65
             298.98,140.32 301.46,138.10 299.92,135.43
             298.82,133.52 295.95,133.05 294.00,132.58
             288.00,131.15 283.21,129.66 277.00,130.47 Z
           M 732.60,139.04
           C 729.03,143.96 732.63,161.19 736.39,166.00
             738.32,168.46 743.97,174.56 747.39,171.36
             749.40,169.47 748.22,164.55 748.00,162.00
             747.28,153.73 746.56,147.05 739.96,141.15
             737.26,138.73 735.98,137.93 732.60,139.04 Z
           M 255.00,146.53
           C 251.52,147.56 241.23,151.60 243.40,156.69
             244.75,159.88 256.69,160.83 260.00,160.96
             265.50,161.17 270.40,160.17 274.94,156.89
             276.99,155.42 279.45,153.05 277.92,150.31
             276.82,148.33 274.01,147.95 272.00,147.59
             266.92,146.69 260.02,145.72 255.00,146.53 Z
           M 755.29,155.88
           C 752.43,158.01 753.02,159.56 753.00,163.00
             752.95,171.01 752.26,178.26 757.53,184.98
             761.79,190.42 767.83,193.83 768.00,184.00
             768.15,174.64 769.09,166.31 761.90,159.06
             759.42,156.56 758.69,155.91 755.29,155.88 Z
           M 233.00,164.47
           C 230.99,165.45 229.87,165.90 228.00,167.09
             228.00,167.09 225.13,169.16 225.13,169.16
             221.67,172.13 221.02,175.85 226.06,177.43
             228.57,178.22 236.95,178.03 240.00,178.00
             245.71,177.93 250.59,176.83 254.85,172.67
             256.35,171.21 258.28,168.74 256.92,166.58
             255.93,165.02 252.70,164.52 251.00,164.47
             246.55,163.68 237.36,163.75 233.00,164.47 Z
           M 774.74,175.01
           C 771.41,179.62 772.56,196.99 775.36,202.00
             779.95,210.20 786.91,213.67 787.00,201.00
             787.05,193.07 788.09,185.78 783.06,179.02
             780.69,175.83 778.77,173.66 774.74,175.01 Z
           M 218.00,182.47
           C 213.99,183.42 200.49,188.87 203.17,194.69
             204.65,197.91 213.85,197.00 217.00,197.00
             223.92,196.99 228.49,196.59 233.94,191.67
             235.86,189.94 238.45,187.08 236.92,184.31
             234.94,180.73 221.72,181.95 218.00,182.47 Z
           M 488.00,193.81
           C 488.00,193.81 476.00,193.81 476.00,193.81
             476.00,193.81 458.00,196.27 458.00,196.27
             440.28,199.01 422.88,203.68 406.00,209.69
             338.66,233.68 282.64,287.91 253.86,353.00
             243.17,377.18 232.31,416.58 231.96,443.00
             231.96,443.00 231.96,452.00 231.96,452.00
             231.96,452.00 231.03,461.00 231.03,461.00
             231.03,461.00 232.00,474.00 232.00,474.00
             232.05,484.78 233.48,495.37 235.25,506.00
             243.71,556.82 267.04,604.10 301.92,642.00
             301.92,642.00 310.01,650.96 310.01,650.96
             339.02,679.39 374.46,701.48 413.00,714.33
             433.21,721.07 460.71,727.75 482.00,728.00
             482.00,728.00 514.00,728.00 514.00,728.00
             533.82,727.97 566.16,721.17 585.00,714.66
             663.37,687.55 724.91,627.52 752.31,549.00
             763.21,517.74 767.38,484.96 767.00,452.00
             767.00,452.00 766.09,442.00 766.09,442.00
             765.15,428.37 763.38,415.37 760.42,402.00
             738.56,303.01 662.14,225.66 564.00,201.13
             547.65,197.04 531.75,195.06 515.00,193.81
             505.97,193.29 497.08,192.32 488.00,193.81 Z
           M 794.31,195.08
           C 791.56,197.92 792.10,199.20 791.58,203.00
             790.50,210.75 790.07,218.15 794.47,224.98
             795.60,226.74 796.99,228.67 799.07,229.34
             803.91,230.90 804.13,225.14 804.58,222.00
             805.70,213.98 806.66,207.30 802.24,200.00
             800.08,196.44 798.65,194.13 794.31,195.08 Z
           M 265.00,195.00
           C 265.00,195.00 261.00,223.00 261.00,223.00
             255.35,223.12 237.46,225.40 233.00,228.00
             233.00,228.00 258.00,240.00 258.00,240.00
             258.00,240.00 254.00,268.00 254.00,268.00
             254.00,268.00 268.00,255.01 268.00,255.01
             268.00,255.01 275.00,250.23 275.00,250.23
             275.00,250.23 283.00,253.25 283.00,253.25
             283.00,253.25 299.00,261.00 299.00,261.00
             299.00,261.00 291.25,244.00 291.25,244.00
             291.25,244.00 288.66,236.00 288.66,236.00
             288.66,236.00 294.00,229.00 294.00,229.00
             294.00,229.00 306.00,215.00 306.00,215.00
             306.00,215.00 278.00,220.00 278.00,220.00
             276.34,214.19 269.11,199.12 265.00,195.00 Z
           M 732.00,195.00
           C 732.00,195.00 720.00,220.00 720.00,220.00
             720.00,220.00 692.00,215.00 692.00,215.00
             692.00,215.00 709.59,236.00 709.59,236.00
             709.59,236.00 707.25,244.00 707.25,244.00
             707.25,244.00 699.00,261.00 699.00,261.00
             699.00,261.00 716.00,253.25 716.00,253.25
             716.00,253.25 724.00,250.66 724.00,250.66
             724.00,250.66 731.00,256.00 731.00,256.00
             731.00,256.00 745.00,268.00 745.00,268.00
             745.00,268.00 742.15,250.00 742.15,250.00
             742.15,250.00 742.15,241.21 742.15,241.21
             742.15,241.21 749.00,236.25 749.00,236.25
             749.00,236.25 765.00,228.00 765.00,228.00
             760.79,224.84 751.42,224.47 746.00,223.59
             743.77,223.23 740.23,223.02 738.59,221.40
             736.88,219.70 736.46,215.36 736.13,213.00
             735.40,207.85 735.01,199.06 732.00,195.00 Z
           M 487.00,202.14
           C 487.00,202.14 505.00,202.14 505.00,202.14
             505.00,202.14 517.00,202.91 517.00,202.91
             538.65,204.40 559.36,208.12 580.00,215.00
             668.50,244.49 734.44,317.21 752.80,409.00
             755.30,421.49 757.85,438.36 758.00,451.00
             758.00,451.00 758.00,469.00 758.00,469.00
             757.98,479.13 756.11,493.88 754.41,504.00
             744.69,561.96 715.63,614.42 672.00,653.83
             651.96,671.93 632.93,683.31 609.00,695.25
             582.05,708.69 550.87,715.99 521.00,718.96
             521.00,718.96 512.00,718.96 512.00,718.96
             512.00,718.96 501.00,720.00 501.00,720.00
             501.00,720.00 497.00,720.00 497.00,720.00
             497.00,720.00 487.00,719.09 487.00,719.09
             487.00,719.09 467.00,717.72 467.00,717.72
             412.95,710.98 361.86,687.05 322.00,649.91
             251.14,583.90 223.87,482.73 250.14,390.00
             254.43,374.85 260.53,357.97 267.78,344.00
             300.91,280.20 355.37,234.28 424.00,213.02
             439.46,208.24 456.93,205.19 473.00,203.28
             473.00,203.28 487.00,202.14 487.00,202.14 Z
           M 202.00,202.44
           C 195.76,203.61 191.53,204.94 187.23,210.04
             185.82,211.71 183.97,214.30 185.71,216.60
             188.16,219.38 201.32,217.45 205.00,216.60
             209.75,215.96 214.73,212.90 217.55,208.99
             218.74,207.34 220.11,204.69 218.22,202.99
             216.29,201.26 204.83,202.08 202.00,202.44 Z
           M 812.27,216.17
           C 807.16,220.66 806.31,236.79 808.76,243.00
             809.91,245.91 813.35,253.35 817.57,250.92
             819.95,249.55 820.50,244.51 820.92,242.00
             822.24,234.17 823.31,227.08 818.73,220.02
             816.72,216.92 815.91,215.81 812.27,216.17 Z
           M 194.00,222.43
           C 186.06,223.62 179.44,223.50 173.10,229.33
             170.01,232.27 164.80,240.28 173.10,240.43
             179.09,240.54 191.07,238.09 195.91,234.36
             201.99,229.69 205.80,221.13 194.00,222.43 Z
           M 512.00,237.00
           C 509.08,239.47 501.90,245.89 498.00,245.22
             495.17,244.72 490.45,240.12 485.00,238.00
             485.00,238.00 488.49,253.54 488.49,253.54
             488.49,253.54 476.00,265.00 476.00,265.00
             476.00,265.00 494.00,265.00 494.00,265.00
             494.00,265.00 499.00,281.00 499.00,281.00
             503.01,275.40 502.58,269.22 505.51,266.60
             508.23,264.16 518.17,265.00 522.00,265.00
             522.00,265.00 509.78,252.83 509.78,252.83
             509.78,252.83 512.00,237.00 512.00,237.00 Z
           M 827.56,239.04
           C 823.59,243.78 821.09,259.00 823.10,265.00
             824.12,268.03 827.87,276.15 832.28,272.99
             833.92,271.81 834.64,267.91 835.13,266.00
             836.99,258.62 838.86,253.50 836.05,246.00
             834.48,241.81 832.67,237.35 827.56,239.04 Z
           M 181.96,243.66
           C 175.32,244.34 164.04,246.60 159.17,251.21
             156.25,253.98 149.21,263.34 158.02,263.57
             164.12,263.72 176.41,260.06 180.91,255.81
             184.46,252.46 190.22,245.05 181.96,243.66 Z
           M 843.20,261.88
           C 837.61,265.39 834.78,281.72 836.24,288.00
             836.97,291.14 839.30,298.43 843.76,297.12
             846.42,296.34 847.55,291.35 848.33,289.00
             850.81,281.59 852.39,275.71 849.56,268.00
             848.18,264.25 847.45,261.92 843.20,261.88 Z
           M 1593.00,266.01
           C 1594.14,272.26 1594.56,277.88 1599.33,282.73
             1608.03,291.41 1630.04,291.37 1638.81,282.73
             1641.62,280.04 1647.67,269.43 1643.40,266.02
             1641.89,264.82 1637.90,264.94 1636.00,265.02
             1627.29,265.38 1625.93,276.67 1616.00,273.10
             1611.44,271.45 1610.13,267.56 1607.63,266.01
             1604.40,264.05 1596.51,265.00 1593.00,266.01 Z
           M 166.00,266.53
           C 159.29,268.17 150.32,270.14 145.76,275.30
             142.22,278.84 135.97,288.89 145.76,287.66
             152.80,286.82 163.16,283.07 167.79,277.96
             171.81,273.52 175.75,265.73 166.00,266.53 Z
           M 474.00,279.00
           C 458.93,289.72 449.30,303.87 450.04,323.00
             451.00,347.69 470.71,369.70 496.00,370.00
             512.01,370.18 524.79,366.40 535.82,354.00
             555.97,331.34 550.46,293.14 523.00,279.00
             523.00,279.00 531.65,291.00 531.65,291.00
             537.71,301.41 538.57,312.95 533.65,324.00
             522.79,348.44 492.01,354.52 473.01,335.96
             469.26,332.30 466.51,328.86 464.46,324.00
             460.03,313.48 459.86,303.18 465.32,293.00
             467.38,289.15 474.07,282.56 474.00,279.00 Z
           M 855.27,287.08
           C 850.19,291.65 846.19,305.17 847.32,312.00
             847.86,315.23 850.38,324.25 855.37,320.99
             859.78,318.10 863.18,303.16 862.96,298.00
             862.75,293.14 861.56,285.72 855.27,287.08 Z
           M 155.71,289.83
           C 149.33,290.82 137.86,294.94 133.29,300.09
             131.12,302.96 125.17,312.86 133.29,313.17
             135.42,313.26 147.74,308.43 150.00,307.01
             152.22,305.61 153.85,304.04 155.71,301.98
             158.32,298.40 162.71,291.59 155.71,289.83 Z
           M 1225.00,392.84
           C 1209.29,395.42 1199.02,400.29 1183.00,392.84
             1157.04,380.34 1156.27,339.68 1179.00,323.80
             1188.12,317.42 1202.36,316.69 1213.00,318.81
             1213.00,318.81 1225.00,322.00 1225.00,322.00
             1225.00,322.00 1228.90,306.00 1228.90,306.00
             1229.33,304.03 1230.12,301.36 1228.90,299.51
             1226.96,296.41 1217.53,295.23 1214.00,294.73
             1197.89,292.43 1180.73,293.94 1166.00,301.11
             1144.53,311.55 1133.04,332.54 1133.00,356.00
             1133.00,356.00 1133.00,364.00 1133.00,364.00
             1133.40,397.69 1158.05,417.75 1190.00,420.09
             1193.42,420.34 1195.45,421.07 1199.00,420.82
             1206.05,420.32 1213.08,419.66 1220.00,418.20
             1222.47,417.67 1226.53,416.96 1227.84,414.58
             1228.93,412.76 1228.17,409.95 1227.84,408.00
             1227.84,408.00 1225.00,392.84 1225.00,392.84 Z
           M 1332.00,389.00
           C 1332.00,389.00 1328.08,405.00 1328.08,405.00
             1327.57,407.35 1326.67,410.38 1328.08,412.61
             1329.61,415.18 1334.24,416.38 1337.00,417.12
             1343.06,418.74 1357.02,421.24 1363.00,420.82
             1382.65,419.42 1403.61,414.59 1409.96,393.00
             1411.25,388.61 1411.05,384.53 1411.00,380.00
             1410.74,358.08 1393.40,350.82 1376.00,343.80
             1369.71,341.26 1355.45,335.82 1357.69,327.00
             1359.05,321.66 1364.07,319.14 1369.00,318.02
             1380.46,315.40 1389.45,320.16 1400.00,323.00
             1400.00,323.00 1404.89,307.00 1404.89,307.00
             1405.36,304.98 1406.11,302.35 1404.89,300.42
             1402.34,296.12 1385.95,294.06 1381.00,294.00
             1369.01,293.86 1359.09,293.65 1348.00,299.27
             1330.49,308.15 1322.20,329.49 1332.36,347.00
             1338.09,356.87 1348.70,362.65 1359.00,366.58
             1366.10,369.28 1375.97,372.16 1380.15,379.01
             1386.40,389.28 1373.48,397.62 1361.00,396.91
             1350.36,396.30 1341.73,392.89 1332.00,389.00 Z
           M 1665.00,348.00
           C 1665.00,348.00 1618.00,348.00 1618.00,348.00
             1618.00,348.00 1618.00,370.00 1618.00,370.00
             1618.00,370.00 1637.00,370.00 1637.00,370.00
             1637.00,370.00 1637.00,386.00 1637.00,386.00
             1636.99,388.55 1637.33,392.46 1635.40,394.40
             1633.79,396.03 1628.32,396.65 1626.00,396.82
             1620.02,397.24 1610.23,394.77 1605.00,391.83
             1588.74,382.67 1583.22,362.31 1587.93,345.00
             1592.78,327.16 1608.51,318.72 1626.00,318.04
             1631.00,317.84 1641.12,319.40 1646.00,320.74
             1648.22,321.36 1652.35,323.18 1654.44,321.89
             1656.09,320.86 1656.67,317.76 1657.13,316.00
             1657.13,316.00 1661.00,300.00 1661.00,300.00
             1652.03,297.64 1645.64,295.12 1636.00,295.00
             1636.00,295.00 1619.00,295.00 1619.00,295.00
             1603.21,295.08 1585.32,301.97 1574.01,313.04
             1546.29,340.18 1550.52,395.00 1587.00,412.74
             1604.66,421.33 1626.01,421.28 1645.00,418.08
             1648.83,417.43 1661.89,415.12 1664.01,412.30
             1665.26,410.63 1665.00,407.04 1665.00,405.00
             1665.00,405.00 1665.00,348.00 1665.00,348.00 Z
           M 992.00,296.00
           C 992.00,296.00 992.00,320.00 992.00,320.00
             992.00,320.00 1024.00,320.00 1024.00,320.00
             1024.00,320.00 1024.00,410.00 1024.00,410.00
             1024.00,410.00 1025.02,417.40 1025.02,417.40
             1025.02,417.40 1031.00,419.00 1031.00,419.00
             1031.00,419.00 1053.00,419.00 1053.00,419.00
             1053.00,419.00 1053.00,320.00 1053.00,320.00
             1053.00,320.00 1080.00,320.00 1080.00,320.00
             1080.00,320.00 1085.98,318.40 1085.98,318.40
             1085.98,318.40 1087.00,313.00 1087.00,313.00
             1087.00,313.00 1087.00,296.00 1087.00,296.00
             1087.00,296.00 992.00,296.00 992.00,296.00 Z
           M 1429.00,419.00
           C 1429.00,419.00 1450.00,419.00 1450.00,419.00
             1450.00,419.00 1458.07,417.40 1458.07,417.40
             1458.07,417.40 1464.71,396.00 1464.71,396.00
             1464.71,396.00 1468.43,388.02 1468.43,388.02
             1468.43,388.02 1476.00,387.00 1476.00,387.00
             1476.00,387.00 1492.00,387.00 1492.00,387.00
             1492.00,387.00 1500.30,388.60 1500.30,388.60
             1500.30,388.60 1507.72,410.00 1507.72,410.00
             1507.72,410.00 1511.51,417.98 1511.51,417.98
             1511.51,417.98 1519.00,419.00 1519.00,419.00
             1519.00,419.00 1541.00,419.00 1541.00,419.00
             1541.00,419.00 1531.02,385.00 1531.02,385.00
             1531.02,385.00 1512.14,324.00 1512.14,324.00
             1512.14,324.00 1506.33,305.00 1506.33,305.00
             1506.33,305.00 1502.49,297.02 1502.49,297.02
             1502.49,297.02 1495.00,296.00 1495.00,296.00
             1495.00,296.00 1474.00,296.00 1474.00,296.00
             1474.00,296.00 1466.70,296.99 1466.70,296.99
             1466.70,296.99 1463.28,305.00 1463.28,305.00
             1463.28,305.00 1457.34,324.00 1457.34,324.00
             1457.34,324.00 1437.58,389.00 1437.58,389.00
             1437.58,389.00 1429.00,419.00 1429.00,419.00 Z
           M 1698.00,296.00
           C 1698.00,296.00 1698.00,419.00 1698.00,419.00
             1698.00,419.00 1775.00,419.00 1775.00,419.00
             1775.00,419.00 1775.00,401.00 1775.00,401.00
             1774.86,393.51 1772.74,394.01 1766.00,394.00
             1766.00,394.00 1726.00,394.00 1726.00,394.00
             1726.00,394.00 1726.00,296.00 1726.00,296.00
             1726.00,296.00 1698.00,296.00 1698.00,296.00 Z
           M 1800.00,296.00
           C 1800.00,296.00 1800.00,419.00 1800.00,419.00
             1800.00,419.00 1820.00,419.00 1820.00,419.00
             1820.00,419.00 1827.40,417.98 1827.40,417.98
             1827.40,417.98 1829.00,412.00 1829.00,412.00
             1829.00,412.00 1829.00,390.00 1829.00,390.00
             1829.00,390.00 1829.00,296.00 1829.00,296.00
             1829.00,296.00 1800.00,296.00 1800.00,296.00 Z
           M 1863.00,296.00
           C 1863.00,296.00 1863.00,419.00 1863.00,419.00
             1863.00,419.00 1891.00,419.00 1891.00,419.00
             1891.00,419.00 1891.00,393.00 1891.00,393.00
             1891.00,393.00 1891.73,380.00 1891.73,380.00
             1891.73,380.00 1902.00,367.00 1902.00,367.00
             1902.00,367.00 1923.00,405.00 1923.00,405.00
             1930.83,418.62 1929.41,418.98 1939.00,419.00
             1939.00,419.00 1964.00,419.00 1964.00,419.00
             1962.00,412.67 1956.97,405.73 1953.42,400.00
             1953.42,400.00 1934.00,368.00 1934.00,368.00
             1931.77,364.29 1923.12,351.60 1923.58,348.00
             1923.98,344.83 1931.59,335.98 1933.88,333.00
             1933.88,333.00 1962.00,296.00 1962.00,296.00
             1962.00,296.00 1935.00,296.00 1935.00,296.00
             1925.29,296.02 1926.30,296.86 1918.42,308.00
             1912.91,315.80 1894.78,341.73 1892.00,349.00
             1892.00,349.00 1891.00,330.00 1891.00,330.00
             1891.00,330.00 1891.00,296.00 1891.00,296.00
             1891.00,296.00 1863.00,296.00 1863.00,296.00 Z
           M 181.00,304.00
           C 181.00,304.00 184.87,322.00 184.87,322.00
             184.87,322.00 186.23,330.79 186.23,330.79
             186.23,330.79 180.00,336.20 180.00,336.20
             180.00,336.20 164.00,346.00 164.00,346.00
             168.55,348.95 185.91,349.00 192.00,349.00
             192.00,349.00 198.00,377.00 198.00,377.00
             202.16,372.65 204.26,364.63 206.72,359.00
             208.39,355.18 209.33,351.79 214.02,351.16
             214.02,351.16 238.00,353.00 238.00,353.00
             238.00,353.00 225.00,340.73 225.00,340.73
             225.00,340.73 218.40,333.83 218.40,333.83
             218.40,333.83 220.20,326.00 220.20,326.00
             220.20,326.00 227.00,308.00 227.00,308.00
             227.00,308.00 211.00,317.05 211.00,317.05
             211.00,317.05 203.00,320.50 203.00,320.50
             203.00,320.50 195.00,315.27 195.00,315.27
             195.00,315.27 181.00,304.00 181.00,304.00 Z
           M 816.00,304.00
           C 816.00,304.00 802.00,316.13 802.00,316.13
             799.78,318.02 797.16,320.75 794.00,320.50
             791.68,320.31 788.03,317.68 786.00,316.42
             781.13,313.39 776.40,309.99 771.00,308.00
             771.00,308.00 777.99,326.00 777.99,326.00
             777.99,326.00 779.65,333.99 779.65,333.99
             779.65,333.99 761.00,353.00 761.00,353.00
             761.00,353.00 778.00,351.72 778.00,351.72
             780.59,351.58 784.35,350.57 786.79,351.72
             789.62,352.80 790.73,356.36 791.80,359.00
             791.80,359.00 799.00,377.00 799.00,377.00
             803.41,370.50 803.59,355.69 806.93,351.31
             808.89,348.75 812.11,349.08 815.00,348.72
             815.00,348.72 835.00,347.00 835.00,347.00
             830.89,343.25 823.90,339.37 819.00,336.40
             816.49,334.88 812.65,332.98 811.90,329.91
             810.59,324.57 818.21,310.65 816.00,304.00 Z
           M 866.38,312.08
           C 861.09,316.92 856.73,328.77 857.04,336.00
             857.17,338.96 858.04,345.16 861.26,346.34
             865.23,347.80 867.35,342.76 868.58,340.00
             872.07,332.12 875.18,327.91 873.11,319.00
             872.14,314.81 871.50,310.93 866.38,312.08 Z
           M 143.00,314.63
           C 135.86,316.88 127.06,320.76 122.65,327.00
             120.01,330.73 116.27,340.77 125.00,338.79
             130.67,337.50 141.52,331.80 144.90,326.96
             147.97,322.56 152.48,313.52 143.00,314.63 Z
           M 1484.00,319.00
           C 1484.00,319.00 1497.00,366.00 1497.00,366.00
             1497.00,366.00 1471.00,366.00 1471.00,366.00
             1471.00,366.00 1479.13,337.00 1479.13,337.00
             1479.13,337.00 1484.00,319.00 1484.00,319.00 Z
           M 876.08,338.17
           C 869.74,342.72 864.86,354.24 865.02,362.00
             865.08,365.23 866.04,374.88 871.63,371.92
             874.19,370.56 880.29,359.03 881.20,356.00
             881.84,353.89 881.93,352.18 881.99,350.00
             882.10,345.29 882.61,337.54 876.08,338.17 Z
           M 134.00,339.65
           C 127.14,342.12 118.30,346.57 114.53,353.00
             112.42,356.60 108.23,367.38 117.00,365.25
             122.84,363.83 133.93,356.38 136.97,350.99
             139.63,346.26 142.64,338.55 134.00,339.65 Z
           M 127.96,364.87
           C 121.15,367.02 111.27,373.54 108.00,380.00
             106.35,383.25 102.80,393.26 110.02,392.36
             115.84,391.63 127.34,382.30 129.81,377.00
             131.81,372.72 135.04,365.45 127.96,364.87 Z
           M 883.08,365.08
           C 877.23,369.39 871.22,379.63 871.02,387.00
             870.92,390.25 870.72,400.89 876.85,397.92
             880.36,396.22 887.24,384.90 888.36,381.00
             888.96,378.92 888.97,377.13 889.00,375.00
             889.05,370.28 889.73,363.71 883.08,365.08 Z
           M 268.00,371.00
           C 268.92,375.86 269.72,380.86 272.65,385.00
             280.89,396.66 300.59,399.98 314.00,400.00
             314.00,400.00 342.00,400.00 342.00,400.00
             342.00,400.00 354.00,399.09 354.00,399.09
             354.00,399.09 375.00,397.83 375.00,397.83
             375.00,397.83 399.00,396.04 399.00,396.04
             399.00,396.04 415.00,396.04 415.00,396.04
             415.00,396.04 424.00,397.00 424.00,397.00
             424.00,397.00 381.00,403.28 381.00,403.28
             381.00,403.28 287.00,413.00 287.00,413.00
             287.35,428.44 298.22,432.84 312.00,433.00
             337.09,433.29 361.83,426.17 386.00,420.13
             398.57,416.98 415.20,412.18 428.00,413.00
             428.00,413.00 371.00,432.02 371.00,432.02
             359.95,435.42 329.33,444.13 319.00,445.00
             323.89,462.10 339.02,463.78 354.00,460.35
             370.89,456.48 385.64,448.43 401.00,440.75
             408.44,437.03 422.15,430.23 430.00,429.00
             404.13,444.52 381.98,458.96 354.00,471.00
             354.00,471.00 354.00,473.00 354.00,473.00
             359.89,476.10 363.15,477.97 370.00,478.48
             385.74,479.67 405.93,465.91 418.00,456.87
             422.32,453.64 435.45,443.30 440.00,442.34
             444.01,441.50 447.53,444.48 451.00,446.11
             460.17,450.41 477.19,455.58 483.00,444.00
             473.30,441.72 462.62,435.20 459.97,425.00
             458.80,420.73 459.99,414.78 459.97,410.00
             460.02,399.83 459.06,392.49 450.96,385.21
             448.73,383.20 445.69,381.32 443.00,379.97
             423.09,369.98 390.18,371.97 368.00,372.00
             368.00,372.00 351.00,373.04 351.00,373.04
             351.00,373.04 338.00,373.04 338.00,373.04
             338.00,373.04 326.00,374.00 326.00,374.00
             326.00,374.00 302.00,374.00 302.00,374.00
             302.00,374.00 268.00,371.00 268.00,371.00 Z
           M 515.00,444.00
           C 521.49,454.97 536.41,451.04 546.00,446.69
             549.48,445.11 554.28,441.49 558.00,442.19
             562.70,443.07 575.61,453.34 580.00,456.63
             592.25,465.77 612.01,479.50 628.00,478.63
             634.37,478.28 638.60,476.08 644.00,473.00
             644.00,473.00 644.00,471.00 644.00,471.00
             629.59,464.79 610.56,454.48 597.00,446.40
             588.55,441.36 577.64,433.74 569.00,430.00
             576.79,429.57 587.99,436.25 595.00,439.75
             610.02,447.26 630.57,458.03 647.00,460.92
             660.39,463.27 675.96,460.94 679.00,445.00
             679.00,445.00 638.00,435.14 638.00,435.14
             621.73,430.53 585.56,419.38 571.00,413.00
             582.69,412.25 601.27,417.19 613.00,420.13
             637.36,426.21 661.71,433.29 687.00,433.00
             701.23,432.83 709.13,428.22 712.00,414.00
             712.00,414.00 695.00,411.83 695.00,411.83
             695.00,411.83 664.00,408.83 664.00,408.83
             664.00,408.83 605.00,401.72 605.00,401.72
             605.00,401.72 574.00,397.92 574.00,397.92
             586.74,394.10 610.39,396.53 624.00,397.92
             624.00,397.92 685.00,400.00 685.00,400.00
             704.20,399.97 728.87,394.18 730.00,371.00
             730.00,371.00 697.00,374.00 697.00,374.00
             697.00,374.00 671.00,374.00 671.00,374.00
             671.00,374.00 657.00,372.96 657.00,372.96
             657.00,372.96 642.00,372.96 642.00,372.96
             642.00,372.96 630.00,372.00 630.00,372.00
             630.00,372.00 594.00,372.00 594.00,372.00
             582.79,372.13 564.97,375.21 555.00,380.27
             542.77,386.48 538.00,395.55 538.10,409.00
             538.00,414.61 539.80,420.81 538.10,426.00
             535.04,436.24 524.74,441.78 515.00,444.00 Z
           M 1097.00,386.47
           C 1092.63,387.51 1089.69,388.37 1086.80,392.10
             1077.60,403.97 1086.07,423.06 1102.00,420.66
             1123.29,417.44 1120.81,383.66 1097.00,386.47 Z
           M 1256.00,386.47
           C 1233.81,391.95 1241.06,424.30 1262.00,420.53
             1278.03,417.64 1278.82,399.06 1271.61,391.21
             1267.52,386.76 1261.71,385.72 1256.00,386.47 Z
           M 121.98,390.87
           C 115.50,393.61 105.68,401.26 103.13,408.00
             101.91,411.21 99.22,421.31 106.04,419.77
             111.91,418.45 122.65,408.69 124.88,403.00
             126.63,398.54 129.09,390.98 121.98,390.87 Z
           M 505.04,522.00
           C 505.04,522.00 505.04,509.00 505.04,509.00
             505.04,509.00 506.00,497.00 506.00,497.00
             506.00,497.00 506.00,464.00 506.00,464.00
             506.00,464.00 506.96,452.00 506.96,452.00
             506.96,452.00 506.96,438.00 506.96,438.00
             507.00,436.05 506.88,432.87 507.60,431.10
             508.87,427.97 511.82,427.10 514.66,423.90
             517.62,420.56 519.51,415.44 519.79,411.00
             521.05,390.80 492.21,381.39 481.53,400.00
             479.30,403.89 478.85,407.59 479.04,412.00
             479.54,423.28 487.01,425.16 490.02,430.17
             492.01,433.49 491.99,439.20 492.00,443.00
             492.00,443.00 492.00,485.00 492.00,485.00
             492.00,485.00 492.96,497.00 492.96,497.00
             492.96,497.00 492.96,511.00 492.96,511.00
             493.05,518.81 493.27,518.09 505.04,522.00 Z
           M 888.29,392.07
           C 881.88,397.17 875.22,406.55 875.01,415.00
             874.93,418.64 874.61,427.20 880.93,423.96
             883.06,422.87 885.30,419.88 886.79,418.00
             893.21,409.90 894.16,408.23 894.00,398.00
             893.92,393.48 893.62,390.66 888.29,392.07 Z
           M 117.00,418.00
           C 110.73,421.68 103.10,427.89 100.78,435.00
             99.61,438.59 97.17,450.04 105.00,446.93
             110.66,444.69 119.84,435.04 121.78,429.00
             123.36,424.05 124.88,416.03 117.00,418.00 Z
           M 893.13,418.96
           C 886.70,422.26 878.56,432.63 877.32,440.00
             876.79,443.20 876.11,452.63 881.85,451.12
             883.86,450.59 886.58,447.49 888.02,445.98
             893.04,440.76 896.62,436.39 897.70,429.00
             898.34,424.63 898.69,419.20 893.13,418.96 Z
           M 188.00,424.00
           C 188.00,424.00 177.29,439.00 177.29,439.00
             177.29,439.00 170.91,444.89 170.91,444.89
             170.91,444.89 163.00,443.00 163.00,443.00
             163.00,443.00 146.00,438.00 146.00,438.00
             146.00,438.00 155.63,453.00 155.63,453.00
             155.63,453.00 160.13,461.00 160.13,461.00
             160.13,461.00 155.71,469.00 155.71,469.00
             155.71,469.00 146.00,484.00 146.00,484.00
             146.00,484.00 164.00,478.66 164.00,478.66
             166.84,477.75 170.04,476.19 172.91,477.78
             178.23,480.73 183.36,494.06 190.00,498.00
             190.00,498.00 190.00,478.00 190.00,478.00
             190.00,478.00 191.02,471.27 191.02,471.27
             191.02,471.27 198.00,467.33 198.00,467.33
             198.00,467.33 216.00,462.00 216.00,462.00
             211.96,456.02 196.31,456.27 191.60,451.30
             189.78,449.38 190.02,446.45 190.00,444.00
             190.00,444.00 190.00,424.00 190.00,424.00
             190.00,424.00 188.00,424.00 188.00,424.00 Z
           M 808.00,424.00
           C 808.00,424.00 809.00,442.00 809.00,442.00
             809.00,442.00 807.40,451.30 807.40,451.30
             807.40,451.30 782.00,461.00 782.00,461.00
             782.00,461.00 807.40,470.70 807.40,470.70
             807.40,470.70 809.00,478.00 809.00,478.00
             809.00,478.00 809.00,498.00 809.00,498.00
             809.00,498.00 820.14,484.00 820.14,484.00
             820.14,484.00 826.18,477.20 826.18,477.20
             826.18,477.20 835.00,478.67 835.00,478.67
             835.00,478.67 853.00,484.00 853.00,484.00
             853.00,484.00 842.87,469.00 842.87,469.00
             842.87,469.00 838.23,461.00 838.23,461.00
             838.23,461.00 842.37,453.00 842.37,453.00
             842.37,453.00 853.00,438.00 853.00,438.00
             853.00,438.00 836.00,442.67 836.00,442.67
             836.00,442.67 827.09,444.89 827.09,444.89
             827.09,444.89 820.85,439.00 820.85,439.00
             820.85,439.00 810.00,424.00 810.00,424.00
             810.00,424.00 808.00,424.00 808.00,424.00 Z
           M 115.98,444.13
           C 109.27,448.34 100.99,456.93 99.47,465.00
             98.98,467.59 98.34,473.46 101.31,474.83
             104.03,476.08 107.15,472.74 109.00,471.15
             115.40,465.63 119.86,461.93 120.83,453.00
             121.32,448.45 122.05,443.11 115.98,444.13 Z
           M 893.98,447.08
           C 887.27,451.41 879.00,459.87 877.47,468.00
             876.99,470.55 876.30,476.32 879.31,477.60
             882.10,478.78 885.16,475.65 887.00,473.97
             892.50,468.95 897.67,464.78 898.83,457.00
             899.53,452.31 900.95,445.70 893.98,447.08 Z
           M 507.00,564.00
           C 512.02,565.02 515.34,566.18 520.00,568.31
             523.12,569.73 526.44,571.98 530.00,571.25
             532.92,570.66 536.79,567.78 539.00,565.82
             548.89,557.03 550.21,547.06 539.00,538.61
             525.12,528.15 491.52,523.27 473.00,515.28
             464.51,511.62 452.96,505.05 449.50,496.00
             447.03,489.55 451.38,483.57 458.00,482.82
             458.00,482.82 480.00,486.83 480.00,486.83
             486.25,487.41 489.88,485.94 487.44,479.00
             486.29,475.74 484.10,472.57 481.82,470.00
             459.92,445.32 426.02,470.97 428.30,494.00
             430.37,514.91 450.72,527.93 469.00,534.31
             469.00,534.31 492.00,540.58 492.00,540.58
             492.00,540.58 517.00,547.03 517.00,547.03
             519.25,547.76 523.93,549.28 524.38,552.00
             524.77,554.34 521.67,555.85 519.99,556.73
             515.58,559.04 509.81,559.67 507.00,564.00 Z
           M 508.00,522.00
           C 511.68,524.49 522.01,526.92 527.00,528.69
             530.09,529.79 533.69,531.64 537.00,531.29
             540.41,530.93 545.08,528.00 548.00,526.19
             557.41,520.35 568.06,511.32 570.48,500.00
             576.11,473.70 546.73,449.13 523.01,465.11
             519.79,467.28 517.64,469.76 515.55,473.00
             514.56,474.53 513.59,476.32 512.88,478.00
             510.18,484.42 511.93,487.27 519.00,486.91
             525.93,486.55 536.53,482.35 542.00,482.97
             551.02,483.99 554.50,493.51 545.82,502.96
             536.89,512.68 520.28,517.91 508.00,522.00 Z
           M 1828.00,464.00
           C 1828.14,470.43 1829.47,477.05 1834.21,481.79
             1842.92,490.50 1864.03,490.12 1872.90,481.79
             1878.04,476.95 1879.45,470.75 1880.00,464.00
             1877.19,464.00 1868.36,463.67 1866.26,464.60
             1862.91,466.07 1861.28,471.99 1854.00,472.23
             1846.80,472.47 1845.29,466.16 1841.74,464.60
             1839.64,463.68 1830.80,464.00 1828.00,464.00 Z
           M 115.98,471.08
           C 108.19,476.11 101.24,484.42 101.01,494.00
             100.96,496.42 100.53,501.27 103.30,502.34
             106.37,503.54 109.25,499.89 111.08,497.98
             118.34,490.42 121.43,486.80 120.98,476.00
             120.81,471.79 120.42,470.18 115.98,471.08 Z
           M 893.00,475.03
           C 886.60,478.97 878.62,485.54 876.49,493.00
             875.44,496.70 873.52,506.78 881.00,503.96
             886.76,501.79 895.86,492.01 897.78,486.00
             899.35,481.08 900.88,472.97 893.00,475.03 Z
           M 1899.00,547.00
           C 1899.00,547.00 1853.00,547.00 1853.00,547.00
             1853.00,547.00 1853.00,569.00 1853.00,569.00
             1853.00,569.00 1872.00,569.00 1872.00,569.00
             1872.00,569.00 1872.00,585.00 1872.00,585.00
             1871.99,587.53 1872.34,591.36 1870.40,593.26
             1868.58,595.04 1865.37,594.96 1863.00,595.00
             1854.09,595.12 1848.22,595.33 1840.00,591.02
             1820.99,581.04 1815.43,552.75 1826.21,535.00
             1828.41,531.38 1832.64,527.11 1836.00,524.53
             1842.01,519.90 1849.54,517.89 1857.00,517.17
             1871.90,515.73 1877.80,520.11 1890.00,522.00
             1890.00,522.00 1893.90,506.00 1893.90,506.00
             1894.33,504.03 1895.12,501.36 1893.90,499.51
             1892.00,496.47 1881.58,494.95 1878.00,494.43
             1862.22,492.14 1845.01,492.49 1830.00,498.45
             1805.67,508.11 1791.04,528.73 1791.00,555.00
             1791.00,555.00 1791.00,562.00 1791.00,562.00
             1791.43,598.15 1819.90,618.60 1854.00,619.00
             1865.69,619.13 1875.60,617.96 1887.00,615.35
             1889.70,614.73 1896.38,613.46 1898.01,611.30
             1899.26,609.64 1899.00,606.03 1899.00,604.00
             1899.00,604.00 1899.00,547.00 1899.00,547.00 Z
           M 1001.00,496.00
           C 1001.00,496.00 1001.00,617.00 1001.00,617.00
             1016.94,619.10 1031.99,619.56 1048.00,618.07
             1057.93,617.15 1070.98,614.65 1079.00,608.47
             1100.06,592.25 1095.47,556.78 1070.00,552.00
             1075.89,546.10 1080.01,547.21 1085.10,538.00
             1087.73,533.23 1088.00,530.30 1088.00,525.00
             1088.00,512.11 1081.76,503.78 1070.00,498.51
             1059.08,493.63 1050.49,494.00 1039.00,494.00
             1022.12,494.00 1018.12,493.74 1001.00,496.00 Z
           M 1109.00,618.00
           C 1109.00,618.00 1130.00,618.00 1130.00,618.00
             1130.00,618.00 1138.07,616.40 1138.07,616.40
             1138.07,616.40 1144.71,595.00 1144.71,595.00
             1144.71,595.00 1148.43,587.02 1148.43,587.02
             1148.43,587.02 1156.00,586.00 1156.00,586.00
             1156.00,586.00 1172.00,586.00 1172.00,586.00
             1172.00,586.00 1180.44,587.60 1180.44,587.60
             1180.44,587.60 1187.86,609.00 1187.86,609.00
             1187.86,609.00 1191.51,616.98 1191.51,616.98
             1191.51,616.98 1199.00,618.00 1199.00,618.00
             1199.00,618.00 1221.00,618.00 1221.00,618.00
             1221.00,618.00 1212.02,587.00 1212.02,587.00
             1212.02,587.00 1192.28,523.00 1192.28,523.00
             1192.28,523.00 1184.00,495.00 1184.00,495.00
             1184.00,495.00 1154.00,495.00 1154.00,495.00
             1154.00,495.00 1146.70,495.99 1146.70,495.99
             1146.70,495.99 1143.14,504.00 1143.14,504.00
             1143.14,504.00 1137.34,523.00 1137.34,523.00
             1137.34,523.00 1119.98,580.00 1119.98,580.00
             1119.98,580.00 1109.00,618.00 1109.00,618.00 Z
           M 1245.00,495.00
           C 1245.00,495.00 1245.00,618.00 1245.00,618.00
             1245.00,618.00 1273.00,618.00 1273.00,618.00
             1273.00,618.00 1273.00,592.00 1273.00,592.00
             1273.00,588.92 1272.72,581.57 1273.56,579.00
             1274.97,574.66 1280.43,568.78 1284.00,566.00
             1286.09,572.63 1295.79,587.89 1299.70,595.00
             1299.70,595.00 1311.79,615.69 1311.79,615.69
             1314.42,618.44 1317.49,617.99 1321.00,618.00
             1327.82,618.01 1339.88,618.74 1346.00,617.00
             1346.00,617.00 1315.20,566.00 1315.20,566.00
             1313.08,562.46 1304.77,550.36 1305.14,547.00
             1305.48,543.94 1313.17,534.90 1315.42,532.00
             1321.13,524.68 1340.17,501.64 1343.00,495.00
             1343.00,495.00 1316.00,495.00 1316.00,495.00
             1305.55,495.02 1305.11,499.36 1299.33,508.00
             1292.79,517.80 1278.25,537.48 1274.00,547.00
             1274.00,547.00 1273.00,528.00 1273.00,528.00
             1273.00,528.00 1273.00,495.00 1273.00,495.00
             1273.00,495.00 1245.00,495.00 1245.00,495.00 Z
           M 1363.00,618.00
           C 1363.00,618.00 1384.00,618.00 1384.00,618.00
             1386.42,618.00 1390.14,618.42 1391.86,616.43
             1393.33,614.72 1397.43,598.44 1398.42,595.00
             1399.15,592.45 1399.96,588.53 1402.30,587.02
             1404.07,585.88 1406.95,586.01 1409.00,586.00
             1409.00,586.00 1427.00,586.00 1427.00,586.00
             1429.00,586.01 1431.87,585.87 1433.57,587.02
             1435.76,588.50 1436.57,592.56 1437.34,595.00
             1438.46,598.57 1442.56,613.69 1444.09,615.69
             1445.91,618.07 1448.28,617.95 1451.00,618.00
             1457.38,618.11 1469.27,618.63 1475.00,617.00
             1475.00,617.00 1461.02,572.00 1461.02,572.00
             1461.02,572.00 1446.00,523.00 1446.00,523.00
             1446.00,523.00 1440.00,504.00 1440.00,504.00
             1440.00,504.00 1436.44,496.02 1436.44,496.02
             1436.44,496.02 1429.00,495.00 1429.00,495.00
             1429.00,495.00 1408.00,495.00 1408.00,495.00
             1408.00,495.00 1400.51,496.02 1400.51,496.02
             1400.51,496.02 1396.98,504.00 1396.98,504.00
             1396.98,504.00 1391.34,522.00 1391.34,522.00
             1391.34,522.00 1371.58,587.00 1371.58,587.00
             1371.58,587.00 1363.00,618.00 1363.00,618.00 Z
           M 1499.00,495.00
           C 1499.00,495.00 1499.00,618.00 1499.00,618.00
             1499.00,618.00 1516.00,618.00 1516.00,618.00
             1516.00,618.00 1523.40,616.98 1523.40,616.98
             1523.40,616.98 1525.00,611.00 1525.00,611.00
             1525.00,611.00 1525.00,596.00 1525.00,596.00
             1525.00,596.00 1525.00,558.00 1525.00,558.00
             1525.00,558.00 1524.04,546.00 1524.04,546.00
             1524.04,546.00 1524.04,530.00 1524.04,530.00
             1524.04,530.00 1540.26,563.00 1540.26,563.00
             1540.26,563.00 1559.14,597.00 1559.14,597.00
             1559.14,597.00 1571.38,616.98 1571.38,616.98
             1571.38,616.98 1577.00,618.00 1577.00,618.00
             1577.00,618.00 1592.00,618.00 1592.00,618.00
             1592.00,618.00 1599.40,616.98 1599.40,616.98
             1599.40,616.98 1601.00,611.00 1601.00,611.00
             1601.00,611.00 1601.00,589.00 1601.00,589.00
             1601.00,589.00 1601.00,495.00 1601.00,495.00
             1601.00,495.00 1574.00,495.00 1574.00,495.00
             1574.00,495.00 1574.00,545.00 1574.00,545.00
             1574.00,545.00 1576.00,578.00 1576.00,578.00
             1576.00,578.00 1564.63,553.00 1564.63,553.00
             1564.63,553.00 1543.42,515.00 1543.42,515.00
             1541.09,510.88 1534.56,497.22 1530.79,495.60
             1529.11,494.88 1525.88,495.00 1524.00,495.00
             1524.00,495.00 1499.00,495.00 1499.00,495.00 Z
           M 1634.00,495.00
           C 1634.00,495.00 1634.00,609.00 1634.00,609.00
             1634.02,617.64 1634.36,617.98 1643.00,618.00
             1643.00,618.00 1703.00,618.00 1703.00,618.00
             1705.30,618.00 1709.41,618.38 1710.98,616.40
             1712.53,614.44 1712.05,603.02 1712.00,600.00
             1711.96,598.05 1712.10,595.37 1710.40,594.02
             1708.92,592.85 1705.82,593.01 1704.00,593.00
             1704.00,593.00 1687.00,593.00 1687.00,593.00
             1687.00,593.00 1663.00,593.00 1663.00,593.00
             1663.00,593.00 1663.00,495.00 1663.00,495.00
             1663.00,495.00 1634.00,495.00 1634.00,495.00 Z
           M 1735.00,495.00
           C 1735.00,495.00 1735.00,618.00 1735.00,618.00
             1735.00,618.00 1755.00,618.00 1755.00,618.00
             1755.00,618.00 1762.40,616.98 1762.40,616.98
             1762.40,616.98 1764.00,611.00 1764.00,611.00
             1764.00,611.00 1764.00,589.00 1764.00,589.00
             1764.00,589.00 1764.00,495.00 1764.00,495.00
             1764.00,495.00 1735.00,495.00 1735.00,495.00 Z
           M 1931.00,495.00
           C 1931.00,495.00 1931.00,609.00 1931.00,609.00
             1931.00,610.99 1930.77,614.81 1932.02,616.40
             1934.02,618.93 1947.43,618.01 1951.00,618.00
             1952.99,618.00 1956.81,618.23 1958.40,616.98
             1960.10,615.63 1959.96,612.95 1960.00,611.00
             1960.00,611.00 1960.00,589.00 1960.00,589.00
             1960.00,589.00 1960.00,495.00 1960.00,495.00
             1960.00,495.00 1931.00,495.00 1931.00,495.00 Z
           M 118.02,497.25
           C 111.05,501.65 104.22,512.52 104.01,521.00
             103.94,524.25 103.97,532.71 109.72,529.92
             112.81,528.41 120.67,517.43 122.01,514.00
             122.78,512.03 123.30,509.12 123.40,507.00
             123.63,502.52 123.64,496.89 118.02,497.25 Z
           M 891.98,502.00
           C 885.93,504.76 876.50,511.76 873.79,518.00
             872.12,521.82 868.50,532.89 877.02,530.28
             883.65,528.25 893.11,519.56 895.45,513.00
             897.03,508.60 898.70,501.83 891.98,502.00 Z
           M 1029.00,543.00
           C 1029.00,543.00 1029.00,515.00 1029.00,515.00
             1035.82,515.00 1047.14,514.08 1052.98,517.28
             1061.37,521.86 1061.93,533.74 1053.96,539.01
             1046.89,543.68 1037.07,543.00 1029.00,543.00 Z
           M 1164.00,518.00
           C 1164.00,518.00 1177.00,564.00 1177.00,564.00
             1177.00,564.00 1152.00,564.00 1152.00,564.00
             1152.00,564.00 1159.12,536.00 1159.12,536.00
             1159.12,536.00 1164.00,518.00 1164.00,518.00 Z
           M 1418.00,518.00
           C 1418.00,518.00 1430.00,564.00 1430.00,564.00
             1430.00,564.00 1405.00,564.00 1405.00,564.00
             1405.00,564.00 1413.12,535.00 1413.12,535.00
             1413.12,535.00 1418.00,518.00 1418.00,518.00 Z
           M 121.18,524.08
           C 114.99,528.90 108.77,539.94 109.04,548.00
             109.13,550.54 109.64,555.63 112.30,556.83
             115.71,558.38 118.78,553.27 120.33,551.00
             124.78,544.49 128.45,539.26 127.41,531.00
             126.84,526.51 126.62,522.95 121.18,524.08 Z
           M 887.00,529.72
           C 879.96,532.76 871.70,537.91 868.33,545.00
             866.50,548.84 863.70,559.36 872.00,556.48
             878.10,554.37 887.91,546.99 890.65,541.00
             892.88,536.11 895.31,528.44 887.00,529.72 Z
           M 508.00,600.00
           C 515.80,600.70 520.93,602.92 526.00,609.00
             542.77,602.58 540.86,585.29 529.96,576.93
             520.80,569.90 498.62,563.54 487.00,559.81
             484.31,558.94 473.98,555.72 474.62,552.11
             475.29,548.30 487.59,545.99 491.00,545.00
             487.31,542.57 477.79,540.72 473.00,539.28
             470.29,538.47 466.81,536.98 464.00,537.60
             461.47,538.16 458.88,540.28 457.16,542.09
             450.62,548.72 451.34,556.21 457.16,562.99
             465.83,572.94 487.32,579.03 500.00,582.98
             504.62,584.41 513.21,586.43 516.72,589.60
             522.44,594.75 511.32,595.65 508.00,600.00 Z
           M 494.00,544.00
           C 494.00,547.53 493.09,557.76 495.60,560.07
             497.18,561.52 501.85,562.52 504.00,563.00
             504.18,559.11 506.38,549.63 503.40,546.93
             501.79,545.48 496.25,544.45 494.00,544.00 Z
           M 198.00,545.00
           C 198.00,545.00 192.00,573.00 192.00,573.00
             192.00,573.00 164.00,575.00 164.00,575.00
             167.82,578.89 182.72,587.64 188.00,590.00
             188.00,590.00 181.00,617.00 181.00,617.00
             181.00,617.00 195.00,606.73 195.00,606.73
             195.00,606.73 203.00,601.27 203.00,601.27
             203.00,601.27 211.00,604.42 211.00,604.42
             211.00,604.42 227.00,614.00 227.00,614.00
             227.00,614.00 220.58,596.00 220.58,596.00
             220.58,596.00 218.55,588.01 218.55,588.01
             218.55,588.01 225.00,580.87 225.00,580.87
             225.00,580.87 238.00,569.00 238.00,569.00
             238.00,569.00 209.00,571.00 209.00,571.00
             207.95,565.21 201.75,549.25 198.00,545.00 Z
           M 799.00,545.00
           C 799.00,545.00 789.00,571.00 789.00,571.00
             789.00,571.00 761.00,569.00 761.00,569.00
             761.00,569.00 779.77,588.00 779.77,588.00
             779.77,588.00 778.00,596.00 778.00,596.00
             778.00,596.00 771.00,614.00 771.00,614.00
             776.62,611.50 790.92,603.16 795.00,599.00
             795.00,599.00 817.00,617.00 817.00,617.00
             817.00,617.00 811.00,589.00 811.00,589.00
             816.63,586.92 831.13,578.96 834.00,574.00
             834.00,574.00 806.00,572.00 806.00,572.00
             805.54,566.53 801.84,549.20 799.00,545.00 Z
           M 126.52,550.01
           C 122.34,553.95 116.35,565.18 116.04,571.00
             115.86,574.43 116.74,588.29 123.40,583.22
             127.97,579.73 134.36,565.27 133.70,559.00
             133.21,554.41 132.51,548.13 126.52,550.01 Z
           M 881.00,556.65
           C 873.76,559.30 865.08,564.09 861.32,571.00
             859.31,574.71 855.64,584.02 864.00,582.31
             870.25,581.03 881.01,573.57 884.10,568.00
             886.73,563.24 889.59,555.55 881.00,556.65 Z
           M 1029.00,597.00
           C 1029.00,597.00 1029.00,564.00 1029.00,564.00
             1037.77,564.00 1048.47,562.68 1055.98,567.85
             1065.66,574.51 1064.38,589.21 1054.00,594.44
             1046.98,597.99 1036.82,597.00 1029.00,597.00 Z
           M 135.17,574.96
           C 128.96,578.55 124.05,593.81 124.96,601.00
             125.32,603.85 126.12,608.58 129.13,609.83
             133.16,611.52 135.23,605.70 136.42,603.00
             140.04,594.81 143.14,591.31 140.87,582.00
             139.92,578.10 139.69,575.16 135.17,574.96 Z
           M 504.00,623.00
           C 504.00,623.00 517.00,631.00 517.00,631.00
             519.88,628.91 522.10,627.17 523.91,624.00
             524.77,622.50 525.39,620.71 525.66,619.00
             528.26,602.13 504.20,601.01 493.00,598.35
             490.47,597.74 483.20,595.79 481.91,593.55
             479.69,589.66 491.44,585.73 494.00,585.00
             494.00,585.00 495.00,597.00 495.00,597.00
             495.00,597.00 504.00,598.00 504.00,598.00
             504.00,598.00 504.00,586.00 504.00,586.00
             494.11,584.47 479.32,577.10 475.00,576.20
             466.19,574.37 457.53,589.65 462.84,599.99
             469.94,613.82 490.72,611.29 502.98,615.64
             508.37,617.55 507.46,619.78 504.00,623.00 Z
           M 873.98,582.74
           C 867.15,584.96 857.41,589.05 853.25,595.04
             850.82,598.53 846.08,609.10 855.00,607.31
             861.59,605.99 872.36,599.71 876.03,594.00
             878.67,589.88 881.61,582.56 873.98,582.74 Z
           M 144.18,599.96
           C 138.38,603.43 134.28,619.37 135.46,626.00
             136.00,629.03 137.50,636.39 141.94,635.26
             144.85,634.51 146.19,630.48 147.20,628.00
             150.21,620.61 152.35,615.12 150.24,607.00
             149.24,603.15 148.52,600.15 144.18,599.96 Z
           M 865.10,608.66
           C 857.46,610.23 847.37,613.78 842.61,620.02
             840.71,622.50 835.52,630.29 841.23,631.67
             846.74,633.00 861.88,625.32 865.10,620.96
             868.17,617.10 873.12,609.47 865.10,608.66 Z
           M 475.00,612.00
           C 469.47,631.68 498.95,636.00 505.25,646.04
             508.90,651.86 502.96,656.13 502.82,659.96
             502.72,662.79 505.34,664.58 508.00,664.04
             513.05,663.00 525.79,647.72 519.72,637.01
             515.89,630.25 506.22,626.65 499.00,625.00
             502.91,622.11 502.85,621.79 503.00,617.00
             503.00,617.00 495.00,616.00 495.00,616.00
             495.00,616.00 497.00,623.00 497.00,623.00
             493.75,620.33 493.48,620.19 493.00,616.00
             493.00,616.00 475.00,612.00 475.00,612.00 Z
           M 153.69,625.01
           C 150.38,628.95 146.73,641.75 147.10,647.00
             147.33,650.40 150.70,664.00 156.31,659.22
             157.92,657.85 158.99,654.02 159.67,652.00
             162.02,644.99 164.12,640.54 162.07,633.00
             160.91,628.71 159.02,623.21 153.69,625.01 Z
           M 853.94,633.78
           C 846.84,634.52 836.10,637.76 831.18,643.04
             828.73,645.68 822.64,654.53 830.06,655.39
             835.58,656.03 849.52,650.08 853.33,645.82
             856.50,642.27 860.88,635.74 853.94,633.78 Z
           M 524.00,685.00
           C 524.00,685.00 500.02,661.00 500.02,661.00
             497.63,657.95 493.99,653.00 493.91,649.00
             493.87,646.65 495.11,644.15 496.00,642.00
             493.58,640.38 486.66,635.20 484.04,635.30
             481.50,635.39 479.96,637.87 479.16,640.01
             477.15,645.37 480.51,652.64 483.63,657.00
             492.01,668.70 510.81,679.32 524.00,685.00 Z
           M 497.00,643.00
           C 495.89,649.20 495.25,651.07 498.00,657.00
             498.00,657.00 500.00,657.00 500.00,657.00
             502.81,650.29 504.24,647.19 497.00,643.00 Z
           M 167.24,647.96
           C 161.93,651.32 160.00,669.12 161.91,675.00
             162.86,677.90 165.78,684.36 169.74,683.26
             172.59,682.46 173.50,676.52 174.13,674.00
             176.11,666.08 177.43,659.64 173.18,652.04
             171.45,648.96 170.68,648.11 167.24,647.96 Z
           M 253.00,654.00
           C 253.00,654.00 258.00,682.00 258.00,682.00
             258.00,682.00 233.00,694.00 233.00,694.00
             237.34,696.52 255.46,698.88 261.00,699.00
             261.00,699.00 265.00,727.00 265.00,727.00
             265.00,727.00 274.75,710.00 274.75,710.00
             274.75,710.00 279.39,703.39 279.39,703.39
             279.39,703.39 288.00,703.39 288.00,703.39
             288.00,703.39 306.00,706.00 306.00,706.00
             306.00,706.00 293.01,692.00 293.01,692.00
             293.01,692.00 288.23,685.00 288.23,685.00
             288.23,685.00 292.00,676.00 292.00,676.00
             292.00,676.00 299.00,661.00 299.00,661.00
             299.00,661.00 282.00,668.75 282.00,668.75
             282.00,668.75 274.00,671.34 274.00,671.34
             274.00,671.34 267.00,666.00 267.00,666.00
             267.00,666.00 253.00,654.00 253.00,654.00 Z
           M 699.00,661.00
           C 699.00,661.00 707.25,678.00 707.25,678.00
             707.25,678.00 709.59,686.00 709.59,686.00
             709.59,686.00 692.00,707.00 692.00,707.00
             692.00,707.00 711.00,703.68 711.00,703.68
             711.00,703.68 719.61,703.68 719.61,703.68
             719.61,703.68 724.25,711.00 724.25,711.00
             724.25,711.00 733.00,727.00 733.00,727.00
             733.00,727.00 736.27,709.00 736.27,709.00
             736.27,709.00 738.74,700.51 738.74,700.51
             738.74,700.51 747.00,697.73 747.00,697.73
             747.00,697.73 765.00,695.00 765.00,695.00
             761.06,688.87 746.70,686.09 742.60,681.37
             740.52,678.96 741.48,675.83 741.87,673.00
             741.87,673.00 745.00,654.00 745.00,654.00
             745.00,654.00 731.00,666.00 731.00,666.00
             731.00,666.00 724.00,671.34 724.00,671.34
             724.00,671.34 716.00,668.75 716.00,668.75
             716.00,668.75 699.00,661.00 699.00,661.00 Z
           M 838.00,658.44
           C 830.45,659.82 822.81,660.47 817.09,666.10
             813.20,669.94 808.41,678.44 818.00,677.81
             824.69,677.37 835.01,674.57 839.83,669.82
             844.59,665.12 848.46,657.45 838.00,658.44 Z
           M 180.51,671.08
           C 176.04,676.03 175.32,691.83 177.76,698.00
             178.91,700.90 182.33,708.08 186.52,705.72
             188.82,704.42 189.16,699.41 189.61,697.00
             191.11,689.00 192.39,683.57 188.20,676.00
             186.25,672.48 184.75,670.10 180.51,671.08 Z
           M 495.00,671.00
           C 495.00,680.87 495.70,697.95 499.00,707.00
             502.84,700.39 502.13,687.66 502.00,680.00
             501.97,678.19 502.05,676.11 501.01,674.53
             499.60,672.40 497.27,671.73 495.00,671.00 Z
           M 823.98,681.44
           C 816.65,682.49 808.02,682.57 802.17,687.53
             798.93,690.28 792.11,699.25 801.02,699.57
             807.10,699.79 819.18,697.31 823.98,693.47
             828.41,689.90 834.24,680.96 823.98,681.44 Z
           M 197.19,691.96
           C 193.44,694.28 194.13,696.94 193.58,701.00
             192.55,708.47 192.21,723.49 201.02,726.83
             205.65,728.59 206.49,722.03 206.83,719.00
             206.83,719.00 207.79,708.00 207.79,708.00
             207.43,702.46 203.46,692.23 197.19,691.96 Z
           M 808.98,703.65
           C 800.23,704.15 791.21,703.28 784.02,709.34
             781.91,711.12 778.49,714.59 779.66,717.69
             780.47,719.86 783.07,719.90 785.00,719.98
             792.93,720.31 802.88,719.20 808.98,713.79
             812.87,710.34 816.66,704.95 808.98,703.65 Z
           M 213.48,713.08
           C 209.15,717.60 210.51,734.67 213.48,740.00
             214.97,742.54 219.84,749.26 223.40,746.92
             225.46,745.57 224.95,740.28 225.17,738.00
             225.94,729.91 226.82,725.40 221.89,718.00
             219.58,714.54 217.75,712.12 213.48,713.08 Z
           M 389.99,722.00
           C 389.99,722.00 377.13,736.99 377.13,736.99
             377.13,736.99 370.96,741.77 370.96,741.77
             370.96,741.77 363.00,739.20 363.00,739.20
             363.00,739.20 346.00,733.00 346.00,733.00
             346.00,733.00 358.55,755.00 358.55,755.00
             359.51,758.80 356.52,761.34 354.27,764.00
             350.23,768.76 345.59,773.26 343.00,779.00
             343.00,779.00 362.00,774.34 362.00,774.34
             364.36,774.06 367.51,772.97 369.79,774.34
             375.05,776.73 379.22,791.94 386.00,796.00
             386.00,796.00 386.99,780.00 386.99,780.00
             386.99,780.00 388.85,769.43 388.85,769.43
             388.85,769.43 397.00,765.88 397.00,765.88
             397.00,765.88 415.00,762.00 415.00,762.00
             410.47,755.95 393.24,754.35 389.99,748.73
             388.86,746.60 389.75,743.37 389.99,741.00
             390.24,736.08 391.60,726.03 389.99,722.00 Z
           M 607.00,722.00
           C 607.00,722.00 609.00,751.00 609.00,751.00
             609.00,751.00 583.00,761.00 583.00,761.00
             583.00,761.00 611.00,768.00 611.00,768.00
             611.00,768.00 613.00,796.00 613.00,796.00
             617.60,791.73 625.78,778.00 628.00,772.00
             628.00,772.00 656.00,779.00 656.00,779.00
             656.00,779.00 644.27,764.00 644.27,764.00
             644.27,764.00 639.51,757.00 639.51,757.00
             639.51,757.00 642.81,749.00 642.81,749.00
             642.81,749.00 652.00,733.00 652.00,733.00
             652.00,733.00 635.00,739.15 635.00,739.15
             635.00,739.15 626.09,741.45 626.09,741.45
             626.09,741.45 619.25,735.00 619.25,735.00
             619.25,735.00 607.00,722.00 607.00,722.00 Z
           M 777.00,724.44
           C 771.62,725.48 767.02,726.91 763.15,731.10
             761.57,732.81 759.40,735.96 761.76,738.01
             763.50,739.52 773.30,739.00 776.00,739.00
             782.83,738.99 786.59,738.51 791.94,733.67
             793.80,732.00 796.45,729.12 794.92,726.43
             792.84,722.78 780.73,723.96 777.00,724.44 Z
           M 232.30,732.13
           C 227.26,737.23 230.26,754.46 234.35,760.00
             236.12,762.39 240.07,767.63 243.57,765.72
             246.63,764.06 246.06,757.90 245.72,755.00
             244.72,746.56 245.48,741.79 239.13,735.11
             236.61,732.46 235.88,731.46 232.30,732.13 Z
           M 755.00,743.47
           C 751.23,744.36 738.59,749.10 741.17,754.69
             742.73,758.07 754.59,758.04 758.00,758.00
             764.17,757.92 768.00,756.85 772.89,752.84
             774.73,751.33 777.16,749.02 775.72,746.42
             774.61,744.41 772.03,744.17 770.00,744.04
             765.55,743.76 759.15,742.98 755.00,743.47 Z
           M 498.00,744.00
           C 498.00,744.00 492.66,762.00 492.66,762.00
             492.66,762.00 488.73,768.98 488.73,768.98
             488.73,768.98 481.00,770.00 481.00,770.00
             481.00,770.00 462.00,770.00 462.00,770.00
             462.00,770.00 482.80,788.09 482.80,788.09
             482.80,788.09 481.67,796.00 481.67,796.00
             481.67,796.00 476.00,814.00 476.00,814.00
             476.00,814.00 492.00,803.71 492.00,803.71
             492.00,803.71 499.58,799.53 499.58,799.53
             499.58,799.53 507.00,803.88 507.00,803.88
             507.00,803.88 522.00,814.00 522.00,814.00
             521.26,809.24 518.57,800.80 517.00,796.00
             516.12,793.33 514.52,789.87 515.92,787.17
             518.69,781.87 532.03,776.89 536.00,770.00
             536.00,770.00 517.00,770.00 517.00,770.00
             514.35,769.99 510.75,770.35 508.70,768.40
             504.15,764.09 503.60,748.29 498.00,744.00 Z
           M 251.60,750.08
           C 247.66,755.39 251.48,771.99 255.39,777.00
             257.17,779.28 262.11,784.93 265.43,782.77
             267.72,781.28 267.00,774.41 266.72,772.00
             266.72,772.00 265.20,762.00 265.20,762.00
             263.56,756.58 258.03,748.37 251.60,750.08 Z
           M 730.00,761.75
           C 728.12,762.34 726.77,762.84 725.02,763.88
             721.89,765.72 716.59,770.46 722.23,773.13
             725.65,774.75 739.24,775.97 743.00,775.10
             746.45,774.29 759.47,769.05 754.24,763.90
             752.75,762.44 749.01,762.15 747.00,761.75
             741.11,761.04 735.91,760.45 730.00,761.75 Z
           M 273.31,766.24
           C 272.56,766.95 272.37,766.40 271.68,768.16
             270.67,770.28 271.39,773.77 271.68,776.00
             272.78,782.36 273.56,788.95 278.21,793.83
             280.17,795.88 284.61,799.52 287.69,798.35
             291.16,797.02 289.53,790.72 289.08,788.00
             287.76,780.02 286.85,773.84 279.98,768.53
             277.37,766.51 276.52,765.96 273.31,766.24 Z
           M 711.00,776.48
           C 711.00,776.48 705.00,778.12 705.00,778.12
             701.82,779.36 694.10,784.00 699.43,787.72
             701.99,789.49 716.75,791.95 720.00,791.50
             723.47,791.02 737.57,786.15 732.38,780.85
             729.63,778.03 715.03,776.09 711.00,776.48 Z
           M 295.31,781.15
           C 294.58,781.88 294.34,781.40 293.61,783.15
             292.69,785.37 293.60,788.75 294.13,791.00
             295.69,797.57 296.90,803.74 302.18,808.48
             304.15,810.25 308.90,813.83 311.69,812.60
             315.25,811.03 313.30,804.76 312.63,802.00
             310.62,793.82 309.47,788.14 302.00,783.06
             299.23,781.17 298.55,780.67 295.31,781.15 Z
           M 687.00,790.48
           C 684.70,791.01 683.23,791.37 681.00,792.23
             681.00,792.23 678.06,793.53 678.06,793.53
             674.46,795.59 672.91,798.96 677.15,801.43
             679.66,802.90 690.91,805.72 694.00,805.91
             697.79,806.14 713.06,803.56 709.87,797.26
             708.85,795.24 706.00,794.36 704.00,793.72
             698.54,791.97 692.77,789.92 687.00,790.48 Z
           M 317.59,795.04
           C 315.34,798.32 316.56,800.37 317.59,804.00
             319.53,810.96 321.01,816.69 327.04,821.39
             329.30,823.15 334.67,826.92 337.39,824.36
             339.89,822.00 337.56,816.71 336.67,814.00
             335.77,811.31 334.24,806.27 332.92,804.00
             330.08,799.14 323.57,792.91 317.59,795.04 Z
           M 660.00,803.52
           C 660.00,803.52 655.02,805.11 655.02,805.11
             650.30,807.25 649.05,810.57 654.06,813.47
             657.42,815.41 667.12,818.64 671.00,818.90
             674.75,819.16 689.35,816.78 685.77,810.41
             684.60,808.33 681.12,807.41 679.00,806.66
             671.06,803.85 668.78,802.13 660.00,803.52 Z
           M 342.36,806.21
           C 338.76,809.68 340.79,812.91 342.36,817.00
             345.48,824.79 347.76,830.87 356.00,834.58
             357.73,835.36 359.97,836.07 361.72,835.36
             366.46,833.61 362.80,827.01 361.72,824.00
             358.57,816.41 357.45,812.56 350.00,808.23
             346.87,806.41 345.87,805.65 342.36,806.21 Z
           M 638.00,813.61
           C 638.00,813.61 633.00,814.43 633.00,814.43
             627.88,815.63 622.36,819.30 629.11,823.59
             634.00,826.70 643.15,830.15 649.00,829.96
             652.43,829.84 665.54,827.71 660.38,821.64
             657.26,817.97 643.05,813.66 638.00,813.61 Z
           M 367.23,815.92
           C 362.54,818.98 365.82,823.02 367.74,827.00
             371.52,834.83 372.49,838.49 381.00,842.72
             382.89,843.67 385.71,845.00 387.77,844.30
             392.67,842.73 389.02,835.89 387.77,833.00
             383.99,824.92 377.30,815.26 367.23,815.92 Z
           M 610.00,822.44
           C 610.00,822.44 605.02,823.53 605.02,823.53
             599.51,825.43 599.10,829.16 604.06,832.21
             610.17,835.96 618.66,840.66 626.00,839.70
             629.56,839.23 639.10,837.20 634.39,831.63
             633.17,830.20 629.74,828.63 628.00,827.69
             621.54,824.20 617.63,821.63 610.00,822.44 Z
           M 391.60,825.03
           C 389.05,828.78 391.13,831.45 393.20,835.00
             397.10,841.68 398.77,845.56 406.00,849.19
             408.44,850.41 413.07,852.57 415.67,850.94
             419.56,848.50 415.37,842.67 413.85,840.00
             409.82,832.93 401.19,821.24 391.60,825.03 Z
           M 583.00,829.44
           C 583.00,829.44 578.11,830.39 578.11,830.39
             569.56,833.44 578.60,839.17 582.00,841.32
             589.67,846.16 594.77,848.10 603.98,846.82
             611.57,845.76 610.21,841.14 604.98,837.59
             598.04,832.88 591.70,828.74 583.00,829.44 Z
           M 417.45,831.06
           C 414.31,834.84 416.97,837.43 419.33,841.00
             423.88,847.89 426.83,852.58 435.00,855.33
             437.18,856.06 440.54,857.26 442.68,855.94
             446.85,853.37 442.42,847.65 440.67,845.00
             435.88,837.77 427.35,827.98 417.45,831.06 Z
           M 557.00,834.51
           C 547.23,835.69 545.38,838.99 554.00,845.29
             560.41,849.97 565.59,854.06 574.00,853.49
             582.25,852.92 585.83,849.62 577.96,843.58
             571.22,838.41 565.81,834.36 557.00,834.51 Z
           M 443.60,836.03
           C 440.98,839.95 443.67,842.70 446.21,846.00
             451.23,852.51 454.65,857.15 463.00,858.97
             465.12,859.45 468.63,860.29 470.55,858.97
             474.67,856.12 469.34,850.47 467.42,848.00
             465.45,845.45 463.37,842.46 460.91,840.39
             456.62,836.77 449.02,833.87 443.60,836.03 Z
           M 469.76,838.99
           C 467.48,842.79 470.08,844.95 472.59,848.00
             478.05,854.62 481.40,858.47 490.00,860.19
             493.36,860.86 501.16,862.17 499.34,855.98
             498.66,853.64 495.89,850.86 494.28,849.00
             488.46,842.29 479.27,834.81 469.76,838.99 Z
           M 523.47,839.02
           C 520.36,843.13 523.86,845.32 527.02,848.13
             533.53,853.92 537.99,857.44 547.00,857.91
             550.22,858.07 556.37,857.05 554.60,852.28
             553.83,850.22 549.75,847.04 548.00,845.59
             541.01,839.78 532.69,835.30 523.47,839.02 Z
           M 496.62,840.02
           C 494.13,844.16 498.14,847.10 501.00,850.00
             507.12,856.20 510.93,859.80 520.00,859.98
             521.66,860.02 524.94,860.14 526.24,859.01
             529.84,855.89 523.04,850.03 521.00,848.00
             514.68,841.73 505.78,836.08 496.62,840.02 Z" />
</svg>
